<svg viewBox="26.200000000000045 -13.076923076923038 995.5999999999997 653.8461538461538" fill="none" xmlns="http://www.w3.org/2000/svg" xmlns:xlink="http://www.w3.org/1999/xlink" overflow="visible" width="995.5999999999997px" height="653.8461538461538px"><g id="Master/Scene/2 Characters"><g id="Background" transform="scale(1 1)"><g id="Background/Home"><g id="Clock"><circle id="Clock Frame" cx="794" cy="138" r="53" fill="#F2F2F2"/><circle id="Time" cx="794" cy="96" r="3" fill="black" fill-opacity="0.1"/><circle id="Time_2" cx="752" cy="138" r="3" fill="black" fill-opacity="0.1"/><circle id="Time_3" cx="836" cy="138" r="3" fill="black" fill-opacity="0.1"/><circle id="Time_4" cx="794" cy="180" r="3" fill="black" fill-opacity="0.1"/><path id="Hand" fill-rule="evenodd" clip-rule="evenodd" d="M794 102L796 137H792L794 102Z" fill="#AFB9C5"/><path id="Hand_2" fill-rule="evenodd" clip-rule="evenodd" d="M811.698 155.698L793.314 140.142L796.142 137.314L811.698 155.698Z" fill="#AFB9C5"/><circle id="Time_5" cx="794" cy="138" r="4" fill="#C5CFD6"/></g><g id="Background Shape 2" opacity="0.345889"><path id="Background Shape" fill-rule="evenodd" clip-rule="evenodd" d="M800.668 416.385C789.59 339.336 195.192 190.624 84.8443 263.603C-25.5036 336.582 80.5822 473.545 311.831 508.617C543.079 543.69 811.747 493.434 800.668 416.385Z" fill="#F2F2F2"/><path id="Background Shape_2" fill-rule="evenodd" clip-rule="evenodd" d="M285.24 466.448C295.5 400.992 846.005 274.655 948.204 336.654C1050.4 398.652 1024.53 529.059 810.363 558.854C596.191 588.65 274.98 531.904 285.24 466.448Z" fill="#C7D1D9"/></g><g id="Hanging Lamp"><g id="Light"><ellipse id="Hanging Lamp Light" cx="106.5" cy="187.173" rx="42.5" ry="22.5" fill="#F2F2F2"/><ellipse id="Hanging Lamp_2" cx="106.5" cy="177.673" rx="49.5" ry="25" fill="#C7D1D9"/></g><rect id="Wire" x="104" width="5" height="160" fill="#C7D1D9"/></g><g id="Hanging Lamp_3" opacity="0.7"><g id="Light_2"><ellipse id="Hanging Lamp Light_2" cx="216" cy="140.842" rx="31.7677" ry="18.1579" fill="#F2F2F2"/><ellipse id="Hanging Lamp_4" cx="216" cy="133.175" rx="37" ry="20.1754" fill="#C7D1D9"/></g><rect id="Wire_2" x="214" width="5" height="136" fill="#C7D1D9"/></g><g id="Lamp"><path id="Body (Stroke)" fill-rule="evenodd" clip-rule="evenodd" d="M855.054 218.473C853.875 217.842 852.458 217.842 851.279 218.473L809.775 240.688L806 233.635L847.504 211.42C851.041 209.527 855.292 209.527 858.829 211.42L958.326 264.676C964.828 268.156 968.888 274.933 968.888 282.309V606.926H960.888V282.309C960.888 277.884 958.452 273.817 954.55 271.729L855.054 218.473Z" fill="#CBCBCB"/><rect id="Lamp Base" x="933" y="603" width="59" height="7" rx="3" fill="#AFB9C5"/><g id="Lamp Top"><path id="Lamp_2" d="M770.499 223.335C783.386 210.447 804.28 210.447 817.168 223.335V223.335C830.055 236.222 830.055 257.116 817.168 270.004L797.369 289.803L750.7 243.134L770.499 223.335Z" fill="#C5CFD6"/><ellipse id="Lamp_3" cx="774.824" cy="265.931" rx="33" ry="6.5" transform="rotate(45 774.824 265.931)" fill="#F2F2F2"/></g></g><g id="Big Leaf Plant"><g id="Big Ass Leaf"><path id="leaf" fill-rule="evenodd" clip-rule="evenodd" d="M99.258 372.173C102.123 371.823 105.18 371.947 107.844 373.077C113.509 375.482 115.119 382.174 115.041 387.614C114.957 393.468 113.714 399.863 118.165 404.58C120.211 406.748 122.756 408.408 124.765 410.617C126.912 412.977 128.597 415.677 129.844 418.577C132.134 423.903 133.258 430.167 131.164 435.754C129.32 440.674 124.681 445.114 125.683 450.708C126.729 456.543 132.612 461.004 136.29 465.351C140.453 470.269 144.286 476.556 144.916 483.006C145.519 489.188 142.828 495.44 138.699 500.113C130.448 509.451 118.045 514.028 105.54 514C100.23 513.988 94.2186 513.748 89.6366 510.895C88.2204 510.013 87.4733 509.023 86.6315 507.648C85.8767 506.414 84.8796 505.612 83.7255 504.739C81.1899 502.822 79.3587 500.239 78.1901 497.347C73.6522 486.114 77.2792 472.218 83.6312 462.243C85.1364 459.88 86.3686 457.605 85.6374 454.789C84.8744 451.848 82.999 449.196 81.3403 446.669C79.7011 444.17 77.8299 441.787 76.5488 439.087C75.207 436.257 74.8292 433.294 75.0662 430.198C75.5118 424.381 78.0227 419.013 81.5777 414.336C85.0017 409.83 89.0221 405.518 89.0311 399.615C89.041 393.357 84.8577 387.791 86.6399 381.429C87.3778 378.795 88.86 376.092 91.2486 374.513C93.5393 372.998 96.5639 372.502 99.258 372.173Z" fill="#C7D1D9"/><path id="middle thing" fill-rule="evenodd" clip-rule="evenodd" d="M97.3862 382.176C97.4399 381.336 98.4367 380.832 99.2215 381.051C100.254 381.34 100.235 382.305 100.207 383.165C100.124 385.808 100.506 388.377 101.142 390.942C102.462 396.274 104.903 401.186 106.836 406.308C108.768 411.425 109.675 416.709 108.542 422.124C107.473 427.23 105.795 432.203 104.701 437.315C103.738 441.821 102.712 446.573 104.18 451.067C105.592 455.393 108.714 458.916 110.962 462.825C115.617 470.918 117.681 479.896 117.957 489.135C118.085 493.425 117.97 497.755 116.975 501.963C116.402 504.386 115.632 507.66 113.556 509.333C112.599 510.105 110.961 510.371 110.155 509.229C109.399 508.158 110.062 506.499 110.303 505.357C111.343 500.413 111.552 495.361 111.303 490.342C111.062 485.48 110.487 480.626 108.957 475.982C107.537 471.673 105.379 467.802 102.84 464.032C100.252 460.191 97.562 456.341 96.4928 451.789C95.4065 447.166 96.289 442.462 97.4691 437.927C98.7171 433.131 100.352 428.472 102.042 423.805C103.689 419.258 104.272 414.955 103.363 410.196C101.567 400.794 96.7598 391.968 97.3862 382.176Z" fill="#C5CFD6"/></g><g id="Big Ass Leaf_2"><path id="leaf_2" fill-rule="evenodd" clip-rule="evenodd" d="M174.892 383.582C178.437 384.659 181.958 386.395 184.485 389.118C189.858 394.909 188.209 403.661 185.243 410.053C182.05 416.933 177.212 423.849 179.94 431.743C181.193 435.372 183.301 438.659 184.49 442.316C185.761 446.224 186.309 450.294 186.239 454.372C186.11 461.862 184.118 469.855 178.708 475.373C173.945 480.232 166.158 483.07 164.377 490.206C162.518 497.651 167.061 505.988 169.078 513.041C171.36 521.024 172.533 530.453 169.862 538.409C167.303 546.034 160.842 552.028 153.528 555.406C138.915 562.156 121.949 561.117 107.296 554.578C101.075 551.801 94.1506 548.391 90.2845 542.633C89.0897 540.853 88.7364 539.294 88.476 537.23C88.2426 535.378 87.4972 533.911 86.6048 532.278C84.644 528.692 83.8618 524.684 84.0198 520.656C84.6345 505.011 96.2336 490.464 108.956 481.972C111.971 479.96 114.618 477.912 115.249 474.2C115.909 470.325 115.111 466.213 114.501 462.361C113.899 458.554 112.964 454.763 112.889 450.902C112.811 446.858 113.933 443.157 115.848 439.619C119.445 432.972 125.227 427.93 131.87 424.247C138.267 420.7 145.262 417.692 148.393 410.715C151.712 403.32 149.747 394.561 155.2 387.964C157.458 385.233 160.625 382.807 164.262 382.182C167.749 381.583 171.558 382.57 174.892 383.582Z" fill="#C7D1D9"/><path id="middle thing_2" fill-rule="evenodd" clip-rule="evenodd" d="M167.651 395.811C168.154 394.844 169.584 394.769 170.387 395.44C171.443 396.324 170.914 397.456 170.432 398.46C168.95 401.547 168.052 404.789 167.452 408.159C166.204 415.166 166.485 422.262 166.063 429.341C165.642 436.414 163.935 443.147 159.774 448.965C155.85 454.452 151.283 459.462 147.327 464.943C143.841 469.773 140.153 474.863 139.516 480.954C138.901 486.817 140.707 492.626 141.288 498.434C142.492 510.457 140.204 522.171 135.688 533.257C133.591 538.405 131.189 543.472 127.821 547.933C125.882 550.503 123.267 553.977 119.963 554.869C118.44 555.281 116.385 554.739 116.042 552.964C115.718 551.298 117.363 549.682 118.242 548.455C122.047 543.146 124.938 537.273 127.275 531.198C129.54 525.314 131.41 519.265 132.053 512.963C132.649 507.116 132.153 501.401 131.158 495.606C130.144 489.701 129.015 483.732 130.149 477.781C131.3 471.736 134.795 466.628 138.55 461.876C142.521 456.85 146.873 452.19 151.293 447.549C155.6 443.027 158.536 438.238 159.966 432.126C162.79 420.049 161.791 407.078 167.651 395.811Z" fill="#C5CFD6"/></g><g id="Big Ass Leaf_3"><path id="leaf_3" fill-rule="evenodd" clip-rule="evenodd" d="M65.306 428C71.2003 428 76.3823 431.124 79.9531 435.558C84.133 440.748 84.9772 447.086 86.6745 453.272C87.5191 456.35 88.9717 459.406 91.5174 461.498C93.8327 463.4 96.7721 463.78 99.5435 464.71C105.082 466.567 109.555 471.041 111.321 476.499C113.476 483.158 111.193 489.873 111.586 496.622C111.947 502.819 118.058 506.685 122.974 509.656C127.821 512.586 132.189 515.328 133.649 521.035C135.197 527.088 135.716 533.844 133.572 539.823C130.002 549.779 119.552 554.163 109.456 554.842C100.293 555.459 88.7719 554.491 81.8907 547.84C77.773 543.86 76.2819 538.293 76.4669 532.755C76.5818 529.311 77.264 525.899 78.146 522.571C78.7711 520.213 79.6157 517.864 79.8563 515.427C80.4959 508.942 74.5026 507.697 69.401 505.916C62.9183 503.654 58.3799 499.38 55.224 493.425C52.285 487.881 51.0519 481.658 52.8137 475.554C53.7135 472.437 55.3456 469.61 57.559 467.205C58.5334 466.146 59.9066 465.263 60.7861 464.151C61.6069 463.112 61.4282 461.766 61.1453 460.55C59.8373 454.931 55.762 450.278 54.3045 444.668C52.9887 439.605 53.7665 433.304 58.3954 430.038C60.3953 428.627 62.8616 428.016 65.306 428Z" fill="#C5CFD6"/><path id="middle thing_3" fill-rule="evenodd" clip-rule="evenodd" d="M73.3377 442.641C79.585 449.296 81.2831 458.325 81.7815 467.076C82.0606 471.983 81.7701 477.159 83.2118 481.919C84.4454 485.993 87.3373 489.107 90.3183 492.051C96.3188 497.975 103.011 503.999 104.766 512.574C105.796 517.606 105.101 522.804 106.524 527.78C107.817 532.304 110.096 536.748 112.867 540.568C115.098 543.645 118.004 546 120.443 548.867C121.187 549.743 122.253 551.031 121.946 552.267C121.586 553.714 119.743 554.172 118.435 553.945C115.386 553.415 112.819 550.503 110.825 548.386C107.91 545.291 105.432 541.962 103.419 538.227C101.183 534.08 99.3833 529.679 98.6142 525.026C97.8161 520.199 98.2133 515.168 96.3909 510.535C93.3242 502.74 85.886 498.14 80.5082 492.064C73.8077 484.494 74.807 475.072 75.4933 465.759C75.8703 460.641 76.2451 454.862 73.6591 450.189C72.672 448.406 70.4711 446.743 70.0467 444.715C69.6579 442.858 71.7797 440.981 73.3377 442.641Z" fill="#AFB9C5"/></g><ellipse id="Base" cx="119" cy="581" rx="39" ry="29" fill="#89C5CC"/></g><g id="Table"><g id="Lamp_4"><rect id="Lamp Base_2" x="263" y="497" width="38" height="9" rx="2" fill="#AFB9C5"/><path id="Lamp Body" fill-rule="evenodd" clip-rule="evenodd" d="M280.217 424H282H283H284.783C285.301 439.419 287.707 454.085 292 468H298.5C307.06 468 314 474.94 314 483.5C314 492.06 307.06 499 298.5 499H265.5C256.94 499 250 492.06 250 483.5C250 474.94 256.94 468 265.5 468H273C279.44 447.128 280.217 424 280.217 424Z" fill="#C7D1D9"/><path id="Shade" fill-rule="evenodd" clip-rule="evenodd" d="M246.622 354.679C246.622 354.679 263.811 353 281 353C298.189 353 315.378 354.679 315.378 354.679L320 434.133C320 434.133 300.5 436 281 436C261.5 436 242 434.133 242 434.133L246.622 354.679Z" fill="#C5CFD6"/></g><path id="Table_2" fill-rule="evenodd" clip-rule="evenodd" d="M219 610V528V506H240H323H344V528V610H323V528H240V610H219Z" fill="#F2F2F2"/></g><g id="Plant"><g id="Succulents"><path id="Thi Succs!" fill-rule="evenodd" clip-rule="evenodd" d="M804.381 328.208C813.214 349.197 828.229 363.781 836.182 385.605C840.898 398.547 842.864 412.62 842.983 427.032C843.048 434.86 842.911 442.694 842.875 450.522C842.839 458.156 842.632 465.741 841.984 473.327C841.332 480.952 840.603 488.487 840.282 496.159C840.031 502.137 839.917 509.091 837.891 514.544C836.279 518.881 832.183 519.516 831.097 514.256C830.493 511.333 830.569 508.068 830.636 505.063C830.721 501.208 830.945 497.359 831.06 493.504C831.519 478.036 830.923 462.566 831.235 447.092C831.539 431.973 833.482 416.871 831.332 401.853C829.556 389.452 825.046 378.802 819.862 368.593C814.874 358.771 809.445 349.187 806.075 338.014C805.107 334.806 804.359 331.481 804 328.03C804.157 327.957 804.284 328.016 804.381 328.208Z" fill="#C1DEE2"/><path id="Thi Succs!_2" fill-rule="evenodd" clip-rule="evenodd" d="M801.974 369.617C803.723 370.88 804.7 372.728 805.882 374.551C807.352 376.817 809.081 378.863 810.551 381.131C813.615 385.86 816.308 390.879 819.102 395.799C824.406 405.137 828.433 415.091 830.427 425.895C832.495 437.092 833.052 448.648 833.919 460.012C834.839 472.056 835.765 484.188 835.887 496.279C835.942 501.696 836.235 507.446 835.584 512.825C835.179 516.173 833.668 519.027 830.261 519C823.025 518.942 819.627 510.927 818.208 504.354C816.119 494.674 815.702 484.393 816.033 474.494C816.432 462.558 818.504 450.802 819.4 438.912C820.35 426.325 819.814 413.96 815.486 402.109C813.3 396.12 810.763 390.274 808.484 384.325C807.514 381.792 806.719 379.19 805.409 376.831C803.951 374.208 802.142 371.826 801 369C801.324 369.206 801.649 369.411 801.974 369.617Z" fill="#89C5CC"/><path id="Thi Succs!_3" fill-rule="evenodd" clip-rule="evenodd" d="M885.334 344.518C885.556 344.345 885.778 344.173 886 344C885.361 346.693 884.207 348.88 883.324 351.341C882.531 353.554 882.129 356.058 881.595 358.477C880.34 364.158 878.89 369.711 877.706 375.44C875.36 386.777 875.804 398.99 877.342 411.568C878.795 423.45 881.092 435.313 882.187 447.192C883.095 457.043 883.485 467.202 882.619 476.601C882.031 482.984 880.103 490.606 874.848 489.962C872.374 489.659 871.084 486.681 870.564 483.32C869.729 477.922 869.554 472.246 869.229 466.878C868.502 454.896 868.358 442.951 868.214 431.092C868.078 419.904 867.705 408.494 868.452 397.587C869.173 387.063 871.428 377.58 874.653 368.83C876.351 364.22 877.97 359.502 879.878 355.108C880.793 353.001 881.911 351.139 882.827 349.033C883.563 347.339 884.148 345.601 885.334 344.518Z" fill="#C1DEE2"/><path id="Thi Succs!_4" fill-rule="evenodd" clip-rule="evenodd" d="M804.209 404.302C805.166 402.695 807.272 407.993 807.593 408.66C807.457 408.328 807.321 407.997 807.184 407.667C809.083 410.825 810.821 414.113 811.901 417.734C812.97 421.319 813.888 424.977 814.891 428.587C816.774 435.361 819.202 441.943 820.907 448.778C822.569 455.438 822.988 461.986 822.585 468.875C822.167 476.035 821.911 483.306 822.399 490.462C822.632 493.88 823.743 497.064 824.504 500.354C825.266 503.648 825.866 506.986 826.767 510.239C826.974 509.815 827 511.232 827 511.339C826.994 512.152 826.881 512.833 826.619 513.604C825.948 515.586 824.691 517.269 822.778 517.816C819.322 518.803 816.112 515.659 814.998 512.339C813.399 507.575 812.517 502.311 811.755 497.304C811.057 492.713 810.891 488.094 811.099 483.44C811.508 474.261 813.169 465.202 813.618 456.026C814.107 446.036 812.128 436.649 810.471 426.925C809.673 422.239 808.91 417.598 807.356 413.134C806.727 411.326 805.907 409.731 805.048 408.061C804.558 407.112 803.569 405.418 804.209 404.302Z" fill="#C1DEE2"/><path id="Thi Succs!_5" fill-rule="evenodd" clip-rule="evenodd" d="M832.252 388.697C831.856 400.142 831.172 411.5 829.646 422.824C828.089 434.38 826.3 445.897 824.802 457.463C823.343 468.722 821.815 480.168 822.018 491.585C822.168 499.993 820.774 514.219 830.113 518.369C839.572 522.572 841.601 504.623 842.222 498.699C843.412 487.333 843.027 475.847 842.449 464.419C841.856 452.689 840.866 441.02 839.64 429.334C838.277 416.353 837.208 403.314 836.349 390.296C835.925 383.857 835.82 377.429 835.937 370.988C836.048 364.911 835.817 358.77 833.656 353C833.543 353.082 833.431 353.164 833.318 353.246" fill="#56919C"/><path id="Thi Succs!_6" fill-rule="evenodd" clip-rule="evenodd" d="M881.083 424.955C879.382 427.433 877.667 429.887 876.061 432.512C873.186 437.209 870.587 442.432 869.805 449.147C868.169 463.2 869.481 478.379 869.798 492.863C869.863 495.822 869.489 498.693 870.655 501.51C871.713 504.064 873.691 506.01 875.576 506C879.611 505.977 878.995 496.095 879.002 491.746C879.014 484.123 878.159 476.422 878.233 468.806C878.306 461.26 878.765 453.694 879.859 446.528C880.967 439.275 882.589 432.309 884.729 425.81C885.026 424.908 887.158 417.937 885.144 419.139" fill="#89C5CC"/><path id="Thi Succs!_7" fill-rule="evenodd" clip-rule="evenodd" d="M863.262 350C860.609 350 860.625 363.226 860.546 364.925C860.257 371.055 860.325 377.188 860.143 383.319C859.744 396.701 859.254 410.2 857.243 423.426C856.161 430.547 854.907 437.636 853.557 444.702C852.204 451.789 850.387 458.867 849.497 466.044C848.642 472.943 849.125 479.977 849.242 486.91C849.359 493.885 849.57 500.874 850.484 507.788C850.709 509.494 850.974 511.195 851.257 512.891C851.492 514.305 851.355 516.058 851.754 517.401C852.393 519.552 855.133 520.256 856.978 519.92C861.97 519.009 865.159 512.74 866.865 508.16C869.043 502.311 870.199 495.967 871.339 489.804C872.631 482.821 873.388 475.732 873.743 468.623C874.466 454.175 873.539 439.712 872.504 425.31C871.928 417.301 871.263 409.327 870.246 401.367C869.232 393.441 867.932 385.55 867.086 377.601C866.471 371.825 865.865 366.04 865.467 360.241C865.371 358.859 865.291 350 863.262 350" fill="#56919C"/><path id="Thi Succs!_8" fill-rule="evenodd" clip-rule="evenodd" d="M859.941 446.139C859.508 432.253 853.927 371.259 852.657 354.467C852.339 350.264 849.282 332.765 848.885 328C847.81 329.347 847.901 350.309 847.913 355.126C847.926 359.891 847.335 364.576 847.031 369.315C846.721 374.151 839.572 436.601 838.645 441.247C836.799 450.491 835.564 459.976 834.611 469.428C833.683 478.639 832.24 488.358 833.482 497.618C833.767 499.75 834.219 501.848 834.955 503.806C835.749 505.922 836.294 507.879 836.932 510.093C837.958 513.659 839.815 516.789 842.668 518.262C848.517 521.281 851.658 514.447 853.251 508.497C855.793 498.995 857.426 489.338 858.191 479.359C859.037 468.318 860.287 457.255 859.941 446.139" fill="#89C5CC"/></g><g id="Planter"><rect id="Vase" x="798" y="487" width="91" height="91" rx="2" fill="white"/><rect id="Leg" x="788" y="497" width="10" height="113" rx="2" fill="#C5CFD6"/><rect id="Leg_2" x="838" y="497" width="10" height="113" rx="2" fill="#C5CFD6"/><rect id="Leg_3" x="889" y="497" width="10" height="113" rx="2" fill="#C5CFD6"/></g></g></g></g><g id="Master/Pose/Standing" transform="matrix(-1 0 0 1 802 214) scale(1 1)"><g id="Master/Pose/Standing"><g id="Head/Front" transform="translate(82 0) scale(1 1)"><g id="Head/Front/Hijab2"><g id="Head"><path id="SKIN" fill-rule="evenodd" clip-rule="evenodd" d="M73.9354 75.2443C80.411 79.1475 86.7736 81.0333 89.7603 80.2635C97.2496 78.333 97.9382 50.9351 92.1433 40.1339C86.3485 29.3328 56.5583 24.625 55.0568 46.0255C54.5356 53.4529 57.6544 60.0814 62.2623 65.4901L54 104H78L73.9354 75.2443Z" fill="#d4a181"/></g><path id="Hijab" fill-rule="evenodd" clip-rule="evenodd" d="M88.9653 36.443C89.4999 36.6227 88.9653 34.3226 87.6868 33.4814C83.766 30.9018 72.0947 27.0839 64.1137 28.7407C58.7672 29.8506 52.0993 32.6364 47.8289 36.1877C43.9792 39.3892 40.4764 45.0333 39.1133 49.9919C37.6821 55.1984 37.1412 62.443 39.1133 66.9855C41.462 72.3953 49.78 78.2257 50 79C50.2511 79.8836 49.2679 83.3357 48.5484 86.9731C47.8289 90.6105 48.1564 99.8718 48.5484 101.382C49.1749 103.796 52.5346 104.983 54 105.158C62.1003 106.123 67.9721 116.179 70.4158 118.752C70.4158 118.752 86.7322 135.133 93.1906 133C94.3238 132.626 92.6252 119.056 91.492 113.24C90.3588 107.424 79.2449 97.0443 78.5331 93.6239C78.1138 91.6089 78.0439 88.1013 78 87.9414C76.9517 80.7151 77.1322 80.1277 75.6033 77.1831C74.0743 74.2384 72.8889 74.0656 73.2563 73.2079C75.0518 69.0167 80.8264 56.1932 82.1365 52C83.6979 47.0024 82.96 48.6439 84.5697 43.6632C85.2825 41.4577 86.1895 35.5102 88.9653 36.443Z" fill="#89C5CC"/><mask id="mask0_215_5128c5074b92-60b1-4609-92a0-aeef1c3b51ed" style="mask-type:alpha" maskUnits="userSpaceOnUse" x="37" y="28" width="57" height="106" fill="#ffffff"><path id="Hijab_2" fill-rule="evenodd" clip-rule="evenodd" d="M88.9653 36.443C89.4999 36.6227 88.9653 34.3226 87.6868 33.4814C83.766 30.9018 72.0947 27.0839 64.1137 28.7407C58.7672 29.8506 52.0993 32.6364 47.8289 36.1877C43.9792 39.3892 40.4764 45.0333 39.1133 49.9919C37.6821 55.1984 37.1412 62.443 39.1133 66.9855C41.462 72.3953 49.78 78.2257 50 79C50.2511 79.8836 49.2679 83.3357 48.5484 86.9731C47.8289 90.6105 48.1564 99.8718 48.5484 101.382C49.1749 103.796 52.5346 104.983 54 105.158C62.1003 106.123 67.9721 116.179 70.4158 118.752C70.4158 118.752 86.7322 135.133 93.1906 133C94.3238 132.626 92.6252 119.056 91.492 113.24C90.3588 107.424 79.2449 97.0443 78.5331 93.6239C78.1138 91.6089 78.0439 88.1013 78 87.9414C76.9517 80.7151 77.1322 80.1277 75.6033 77.1831C74.0743 74.2384 72.8889 74.0656 73.2563 73.2079C75.0518 69.0167 80.8264 56.1932 82.1365 52C83.6979 47.0024 82.96 48.6439 84.5697 43.6632C85.2825 41.4577 86.1895 35.5102 88.9653 36.443Z" fill="#ffffff"/></mask><g mask="url(#mask0_215_5128c5074b92-60b1-4609-92a0-aeef1c3b51ed)"><path id="Shade" fill-rule="evenodd" clip-rule="evenodd" d="M66.5618 53.1421C66.1845 45.537 66.5618 42.566 68.316 37H67.2344C65.5245 39.2089 64.0938 45.9652 65.7013 53.1421H66.5618ZM45.3638 52.7838L45.3637 52.7836L45.3637 52.7834C45.175 52.3218 44.9819 51.8491 44.7821 51.3643L44.0945 51.6948C46.2641 59.6306 48.9031 65.7569 57.9652 70.8927L58.6701 70.3992C50.0996 64.3728 48.2618 59.8756 45.3638 52.7838ZM58.2134 43.2923C58.3042 43.9806 58.391 44.6509 58.4759 45.3055V45.3055C59.7785 55.3594 60.6045 61.735 67.8664 73.2976L67.0435 73.5492C59.0831 62.8261 57.8213 54.0741 57.4452 43.3541L58.2134 43.2923ZM50.3735 75.8804L49.6694 76.7363C53.1961 77.4744 55.594 80.0682 58.3429 83.0416C61.2514 86.1877 64.5528 89.7588 70 92.0068L71.0112 91.3941C65.0658 88.3027 62.2999 85.2305 59.8848 82.5479C57.3846 79.7707 55.2604 77.4111 50.3735 75.8804Z" fill="black" fill-opacity="0.2"/></g></g></g><g id="Lower Body/Standing" transform="translate(0 187) scale(1 1)"><g id="Lower Body/Standing/Skirt"><path id="Skirt Shadow" fill-rule="evenodd" clip-rule="evenodd" d="M97.4077 98.0881C97.4077 98.0881 133.392 108.153 159.5 108.153C185.607 108.153 208 92.6533 208 92.6533C208 92.6533 172.786 82.3228 150 82.3228C127.214 82.3228 97.4077 98.0881 97.4077 98.0881Z" fill="#56919c"/><path id="SKIN" fill-rule="evenodd" clip-rule="evenodd" d="M180.267 117.824C180.036 117.477 179.84 117.098 179.685 116.689C176.479 108.208 125.117 16.7255 120 0H177.826C181.717 12.7167 199.227 92.5198 201.691 108.442C209.467 133.557 225.475 214.895 227.519 220.53C229.669 226.458 217.572 232.633 214.349 225.346C209.22 213.75 196.999 181.665 191.557 162.074C186.456 143.708 182.302 127.184 180.267 117.824Z" fill="#d4a181"/><path id="Shadow" fill-rule="evenodd" clip-rule="evenodd" d="M180.267 117.824C180.036 117.477 179.84 117.098 179.685 116.689C176.479 108.208 125.117 16.7255 120 0H177.826C181.717 12.7167 199.227 92.5198 201.691 108.442C209.467 133.557 225.475 214.895 227.519 220.53C229.669 226.458 217.572 232.633 214.349 225.346C209.22 213.75 196.999 181.665 191.557 162.074C186.456 143.708 182.302 127.184 180.267 117.824Z" fill="black" fill-opacity="0.1"/><path id="SKIN" fill-rule="evenodd" clip-rule="evenodd" d="M132.957 128.994C109.475 134.928 23.5841 145.658 17.6899 147.341C11.6265 149.072 6.31016 136.574 13.8048 133.867C25.7299 129.559 58.5892 119.606 78.5119 115.544C94.5365 112.277 109.159 109.611 118.976 108.05C118.145 80.4734 114.343 14.2935 116.835 0H168C165.61 13.7065 145.41 113.718 141.656 123.729C140.464 127.302 136.909 128.882 132.957 128.994V128.994Z" fill="#d4a181"/><g id="Left [shoe]"><path id="shoe" fill-rule="evenodd" clip-rule="evenodd" d="M15.9311 133.074C16.2095 131.937 15.5182 130.765 14.3648 130.563C12.2611 130.195 9.12692 129.756 7.45574 130.05C4.7919 130.52 -0.162158 132.309 -0.162158 132.309C0.382733 135.399 9.63191 187.854 9.63191 187.854C9.63191 187.854 17.1715 188.757 16.9197 183.991C16.6679 179.226 16.5838 176.059 16.5838 176.059L23.5408 148.213C23.6774 147.667 23.3357 147.115 22.7854 146.994L18.4673 146.044C18.4673 146.044 15.691 142.081 15.215 139.381C14.9252 137.738 15.4647 134.98 15.9311 133.074Z" fill="#E4E4E4"/></g><g id="Right [shoe]"><path id="shoe_2" fill-rule="evenodd" clip-rule="evenodd" d="M213.45 223.284C212.378 222.813 211.104 223.29 210.705 224.391C209.977 226.398 209 229.409 209 231.106C209 233.811 209.901 239 209.901 239C213.039 239 266.303 239 266.303 239C266.303 239 268.502 231.732 263.765 231.152C259.028 230.573 255.895 230.106 255.895 230.106L229.68 218.419C229.165 218.189 228.563 218.43 228.348 218.951L226.663 223.039C226.663 223.039 222.278 225.085 219.537 225.085C217.868 225.085 215.246 224.074 213.45 223.284Z" fill="#E4E4E4"/></g><path id="Skirt" fill-rule="evenodd" clip-rule="evenodd" d="M117 4.14848e-05C117 4.14848e-05 150.82 -9.67607 181 4.14848e-05C188 31.9375 205.009 44.6135 208 93.579C174 110.473 132 81.5305 97.0001 98.0054C87.0001 74.9612 101 19.4646 117 4.14848e-05Z" fill="#89c5cc"/></g></g><g id="Upper Body" transform="translate(22 82) scale(1 1)"><g id="Upper Body/Jacket 2"><path id="SKIN" fill-rule="evenodd" clip-rule="evenodd" d="M234.235 61.7042L198 77.6171L209.57 92.4393L236.707 71.6329C250.262 69.1432 256.549 67.0043 255.566 65.2163C254.738 63.7087 253.197 63.6237 251.778 63.5454C250.672 63.4844 249.64 63.4275 249.076 62.7053C247.789 61.056 250.966 55.9611 254.188 51.2552C257.41 46.5492 254.39 46.7192 252.623 47.282C246.711 50.5716 240.582 55.379 234.235 61.7042ZM72 86.0658L51.5083 82C37.6109 118.63 29.3256 138.702 26.6523 142.218C24.692 144.796 12.6026 151.437 4.41982 154.984C1.13535 156.407 1.84055 159.183 2.80388 160.071C8.88024 165.672 14.5292 163.709 20.6783 161.572C22.4585 160.953 24.2806 160.32 26.1672 159.851C31.0502 158.639 32.5361 161.15 33.9404 163.523C35.1837 165.624 36.363 167.616 39.7793 166.821C39.6239 166.151 39.433 165.4 39.227 164.589C37.8952 159.349 35.9312 151.62 38.845 147.13C40.3404 144.826 51.3921 124.471 72 86.0658Z" fill="#d4a181"/><path id="Coat Back" fill-rule="evenodd" clip-rule="evenodd" d="M127.695 5.33206L136.342 3.84889C155.176 22.119 162.862 66.0125 175.414 71.8225C187.281 77.3157 204.104 72 224.1 64.8225L230.223 78.5046C212.055 98.1606 173.349 114.767 157.66 105.287C132.576 90.1298 126.786 35.9937 127.695 5.33206Z" fill="#c21b15"/><path id="Shirt" fill-rule="evenodd" clip-rule="evenodd" d="M90 114C90 114 142.008 114 166.511 114C170.008 114 169.349 108.952 168.843 106.404C163.011 77.0038 140.241 45.3115 140.241 3.46073L118.172 0C99.9175 29.3584 93.6048 65.5046 90 114Z" fill="#C7D1D9"/><path id="Coat Front" fill-rule="evenodd" clip-rule="evenodd" d="M117 0H116.748C67.2466 30.5044 37.3306 77.7907 27 141.859L43.0374 145C53.6609 132.623 66.7714 112.368 82.3688 84.2332C77.5834 101.181 74.0896 118.563 73 135H141.872C155.205 101.305 125.486 0 125.486 0H120.731H117Z" fill="#ff4133"/></g></g></g></g><g id="Master/Pose/Standing" transform="translate(246 214) scale(1 1)"><g id="Master/Pose/Standing"><g id="Head/Front" transform="translate(82 0) scale(1 1)"><g id="Head/Front/Caesar"><g id="Head"><path id="SKIN" fill-rule="evenodd" clip-rule="evenodd" d="M73.9354 75.2443C80.411 79.1475 86.7736 81.0333 89.7603 80.2635C97.2496 78.333 97.9382 50.9351 92.1433 40.1339C86.3485 29.3328 56.5583 24.625 55.0568 46.0255C54.5356 53.4529 57.6544 60.0814 62.2623 65.4901L54 104H78L73.9354 75.2443Z" fill="#57331f"/></g><path id="Combined Shape" fill-rule="evenodd" clip-rule="evenodd" d="M63 41C76.8493 41.0992 86.4854 40.5156 92 39C91.7486 34.3062 86.8691 29 74 29C59.682 29 52 37.3455 52 47C52 55.8205 57.6781 66.5628 62 67C63.1187 66.7553 64.0738 65.4091 65.0235 63.5535C63.245 62.7108 62 60.7653 62 58.5C62 55.4624 64.2386 53 67 53C68.0028 53 68.9367 53.3247 69.7194 53.8838C71.5356 50.9533 73.812 48.762 77 49L75 43L63 42V41Z" fill="#e8e1e1"/></g></g><g id="Lower Body/Standing" transform="translate(0 187) scale(1 1)"><g id="Lower Body/Standing/Sweatpants"><path id="SKIN" fill-rule="evenodd" clip-rule="evenodd" d="M128 0L164.631 126.227L181.86 221H199.153L181.891 0L128 0Z" fill="#57331f"/><path id="Shadow" fill-rule="evenodd" clip-rule="evenodd" d="M128 0L164.631 126.227L181.86 221H199.153L181.891 0L128 0Z" fill="black" fill-opacity="0.1"/><path id="SKIN" fill-rule="evenodd" clip-rule="evenodd" d="M111.538 0C114.094 65.5742 113.086 101.34 112.514 107.298C111.942 113.256 108.694 153.156 86.5637 223H104.55C133.858 155.997 144.089 116.096 147.45 107.298C150.812 98.4996 160.739 62.7336 175.233 0H111.538Z" fill="#57331f"/><path id="Pant" fill-rule="evenodd" clip-rule="evenodd" d="M127.214 0C136.742 43.435 153.222 112.768 176.653 208H201.946C203.814 110.254 195.867 45.9205 182.105 0L127.214 0Z" fill="#191847"/><path id="Pant" fill-rule="evenodd" clip-rule="evenodd" d="M111.41 0C113.913 65.5742 107.426 130.177 87.3306 209.021H114.317C143.679 143.018 164.723 78.7336 179.106 0H111.41Z" fill="#393f82"/><g id="Left [shoe]"><path id="Shoe" fill-rule="evenodd" clip-rule="evenodd" d="M84 236L84.9149 221.249C84.9546 220.609 85.5774 220.171 86.2047 220.304C94.8719 222.146 106.826 218 106.826 218C118.857 226.522 136.201 230.433 142.308 231.604C143.49 231.831 144.248 233.023 143.92 234.18L142.553 239H106.826H85.9848L84 236Z" fill="#191847"/></g><g id="Right [shoe]"><path id="Shoe_2" fill-rule="evenodd" clip-rule="evenodd" d="M178 236L178.915 221.249C178.955 220.609 179.577 220.171 180.205 220.304C188.872 222.146 200.826 218 200.826 218C212.857 226.522 230.201 230.433 236.308 231.604C237.49 231.831 238.248 233.023 237.92 234.18L236.553 239H200.826H179.985L178 236Z" fill="#191847"/></g></g></g><g id="Upper Body" transform="translate(22 82) scale(1 1)"><g id="Upper Body/Jacket 2"><path id="SKIN" fill-rule="evenodd" clip-rule="evenodd" d="M234.235 61.7042L198 77.6171L209.57 92.4393L236.707 71.6329C250.262 69.1432 256.549 67.0043 255.566 65.2163C254.738 63.7087 253.197 63.6237 251.778 63.5454C250.672 63.4844 249.64 63.4275 249.076 62.7053C247.789 61.056 250.966 55.9611 254.188 51.2552C257.41 46.5492 254.39 46.7192 252.623 47.282C246.711 50.5716 240.582 55.379 234.235 61.7042ZM72 86.0658L51.5083 82C37.6109 118.63 29.3256 138.702 26.6523 142.218C24.692 144.796 12.6026 151.437 4.41982 154.984C1.13535 156.407 1.84055 159.183 2.80388 160.071C8.88024 165.672 14.5292 163.709 20.6783 161.572C22.4585 160.953 24.2806 160.32 26.1672 159.851C31.0502 158.639 32.5361 161.15 33.9404 163.523C35.1837 165.624 36.363 167.616 39.7793 166.821C39.6239 166.151 39.433 165.4 39.227 164.589C37.8952 159.349 35.9312 151.62 38.845 147.13C40.3404 144.826 51.3921 124.471 72 86.0658Z" fill="#57331f"/><path id="Coat Back" fill-rule="evenodd" clip-rule="evenodd" d="M127.695 5.33206L136.342 3.84889C155.176 22.119 162.862 66.0125 175.414 71.8225C187.281 77.3157 204.104 72 224.1 64.8225L230.223 78.5046C212.055 98.1606 173.349 114.767 157.66 105.287C132.576 90.1298 126.786 35.9937 127.695 5.33206Z" fill="#e87613"/><path id="Shirt" fill-rule="evenodd" clip-rule="evenodd" d="M90 114C90 114 142.008 114 166.511 114C170.008 114 169.349 108.952 168.843 106.404C163.011 77.0038 140.241 45.3115 140.241 3.46073L118.172 0C99.9175 29.3584 93.6048 65.5046 90 114Z" fill="#C7D1D9"/><path id="Coat Front" fill-rule="evenodd" clip-rule="evenodd" d="M117 0H116.748C67.2466 30.5044 37.3306 77.7907 27 141.859L43.0374 145C53.6609 132.623 66.7714 112.368 82.3688 84.2332C77.5834 101.181 74.0896 118.563 73 135H141.872C155.205 101.305 125.486 0 125.486 0H120.731H117Z" fill="#ffa434"/></g></g></g></g></g></svg>